<?xml version="1.0" standalone="no"?>
<!DOCTYPE svg PUBLIC "-//W3C//DTD SVG 20010904//EN"
 "http://www.w3.org/TR/2001/REC-SVG-20010904/DTD/svg10.dtd">
<svg version="1.0" xmlns="http://www.w3.org/2000/svg"
 width="1024.000000pt" height="1024.000000pt" viewBox="0 0 1024.000000 1024.000000"
 preserveAspectRatio="xMidYMid meet">

<g transform="translate(0.000000,1024.000000) scale(0.100000,-0.100000)"
fill="#000000" stroke="none">
<path d="M7030 8255 c-213 -39 -398 -118 -558 -240 -170 -128 -329 -326 -415
-519 -23 -50 -42 -93 -44 -95 -1 -2 -58 14 -125 37 -270 91 -374 107 -678 107
-227 0 -254 -2 -365 -27 -66 -14 -171 -43 -233 -63 -63 -20 -115 -35 -116 -33
-2 2 -18 39 -36 83 -128 314 -326 536 -583 654 -135 62 -194 75 -342 75 -148
0 -220 -15 -355 -73 -211 -91 -395 -273 -513 -508 -35 -68 -92 -259 -108 -358
-18 -119 -16 -342 5 -449 40 -207 126 -404 241 -558 60 -80 160 -182 218 -223
l27 -20 -43 -85 c-71 -141 -90 -280 -63 -440 16 -93 60 -206 106 -270 l20 -28
-31 -6 c-18 -3 -52 -6 -78 -6 -63 0 -164 -17 -212 -36 -30 -13 -39 -22 -39
-40 0 -35 23 -40 115 -20 45 9 119 21 166 26 58 7 88 15 96 26 11 15 19 10 75
-40 61 -55 183 -126 218 -126 12 0 27 -23 51 -77 86 -202 331 -484 526 -607
24 -14 43 -33 43 -40 0 -20 -86 -248 -120 -321 -16 -33 -44 -82 -62 -110 -136
-205 -168 -279 -168 -394 0 -124 67 -211 162 -211 25 0 59 5 77 11 18 6 35 9
38 5 3 -3 -1 -51 -10 -105 -10 -55 -17 -116 -17 -134 l0 -35 -61 19 c-33 10
-80 19 -104 19 -42 0 -43 1 -50 38 -8 41 -81 225 -127 317 -73 146 -135 168
-543 185 -1198 51 -1455 60 -1506 49 -58 -13 -123 -67 -140 -116 -23 -72 -6
-152 90 -423 386 -1082 380 -1067 443 -1136 72 -78 106 -88 353 -108 116 -9
287 -23 380 -31 94 -7 271 -19 395 -25 124 -6 347 -18 496 -26 340 -18 620
-18 839 0 94 8 226 17 295 21 69 4 148 12 175 17 28 6 109 14 180 19 72 4 157
13 190 19 33 6 101 11 150 12 50 0 74 2 55 4 -117 13 -124 15 -102 30 12 8 23
31 27 55 7 39 8 41 39 35 112 -20 270 -28 431 -23 190 7 566 33 622 43 l33 6
0 -49 c0 -75 55 -140 140 -163 62 -17 348 -40 494 -40 125 0 347 18 476 38 62
10 36 23 -47 24 l-68 0 32 34 c53 56 57 140 10 209 -13 20 -55 60 -93 90 -59
48 -89 63 -174 92 -8 3 21 13 65 23 291 66 632 276 846 523 302 349 456 818
435 1325 -10 245 -19 302 -143 892 -24 111 -27 148 -27 330 -1 194 1 210 27
303 15 54 50 144 78 200 43 85 65 115 133 183 132 131 268 181 416 156 145
-25 239 -87 296 -194 33 -65 38 -83 42 -158 3 -70 0 -95 -18 -144 -55 -146
-205 -227 -355 -192 -68 16 -75 14 -75 -20 0 -38 32 -62 95 -69 141 -18 275
40 356 154 90 126 104 301 36 445 -88 185 -233 269 -467 270 -133 1 -194 -15
-345 -92 -350 -180 -490 -676 -370 -1312 97 -515 109 -618 103 -903 -5 -214
-22 -319 -84 -507 -103 -311 -300 -574 -559 -747 -235 -156 -514 -250 -779
-261 l-119 -5 23 39 c13 22 31 50 40 64 60 87 125 262 162 430 19 91 22 134
22 320 0 178 -4 236 -22 336 -46 253 -122 466 -274 771 l-111 223 61 65 c156
166 281 410 336 655 32 145 50 338 41 454 l-7 89 23 -7 c13 -4 58 -11 99 -16
250 -32 583 105 838 345 147 137 269 344 328 559 31 111 43 350 25 488 -13
100 -70 286 -113 373 -87 174 -256 368 -404 465 -145 95 -300 158 -453 184
-113 19 -297 20 -401 1z m280 -65 c387 -44 720 -269 884 -597 49 -99 94 -233
113 -337 20 -115 22 -328 4 -421 -28 -141 -94 -301 -174 -420 -52 -77 -194
-223 -278 -285 -124 -93 -320 -177 -462 -200 -85 -14 -231 -9 -284 10 -34 12
-38 19 -48 86 -8 55 -36 84 -80 84 -19 0 -77 -16 -128 -35 -52 -19 -192 -67
-313 -106 -120 -38 -338 -111 -484 -161 -145 -50 -271 -91 -279 -92 -9 -1 -20
23 -32 72 -29 115 -82 205 -176 300 -132 133 -273 188 -458 180 -322 -16 -579
-257 -602 -566 -3 -40 -9 -71 -12 -69 -80 44 -109 52 -196 52 -76 0 -99 -5
-146 -27 l-56 -26 -6 77 c-12 146 -75 279 -187 392 -90 90 -204 153 -313 172
-80 13 -81 -1 8 182 104 215 284 454 444 590 135 115 204 162 345 235 360 188
807 246 1216 159 52 -12 157 -41 232 -65 l137 -45 3 -62 c3 -54 6 -62 24 -65
24 -3 32 12 64 132 28 104 103 248 191 366 91 123 135 167 239 244 182 136
381 217 596 245 96 12 118 12 214 1z m-3639 -44 c203 -43 425 -199 565 -397
57 -82 160 -284 170 -335 6 -30 3 -33 -63 -69 -95 -53 -175 -107 -265 -181
-43 -35 -81 -64 -86 -64 -4 0 -13 21 -20 46 -80 299 -296 552 -545 640 -113
40 -250 36 -281 -8 -28 -39 -12 -46 117 -50 122 -3 122 -4 205 -47 189 -99
336 -289 427 -549 l33 -95 -43 -46 c-71 -77 -220 -276 -275 -366 -62 -102
-124 -234 -141 -297 l-13 -47 -64 -11 c-86 -15 -175 -57 -240 -114 l-54 -46
-45 32 c-159 115 -321 361 -388 593 -51 178 -57 418 -15 625 61 299 242 560
478 692 73 41 195 85 270 98 76 13 202 11 273 -4z m-27 -1968 c100 -33 201
-112 268 -211 47 -70 65 -109 89 -202 80 -305 -101 -622 -396 -690 -94 -22
-146 -17 -162 15 -63 134 -53 693 18 968 39 151 41 154 87 146 20 -3 64 -15
96 -26z m-230 -5 c-4 -16 -16 -57 -28 -93 l-21 -65 -37 3 c-53 4 -143 37 -143
52 0 25 178 129 223 130 8 0 10 -9 6 -27z m1919 -18 c163 -66 292 -217 332
-387 17 -75 19 -236 4 -310 -24 -113 -112 -250 -179 -278 -16 -7 -27 -16 -25
-21 9 -13 -76 -65 -155 -94 -90 -32 -201 -42 -283 -25 -93 19 -208 83 -280
154 -111 111 -161 235 -161 401 0 183 57 328 174 439 123 116 234 158 400 152
86 -2 117 -8 173 -31z m3250 -107 c-114 -151 -142 -196 -187 -315 -40 -104
-65 -238 -73 -383 -6 -135 23 -372 76 -604 82 -360 106 -558 98 -824 -4 -146
-11 -212 -30 -302 -30 -140 -76 -284 -129 -405 -56 -128 -215 -362 -313 -461
-209 -210 -539 -394 -805 -448 -158 -32 -456 -51 -505 -32 -14 5 -12 10 12 35
28 28 30 28 183 34 245 9 400 48 637 162 147 71 214 112 318 196 334 272 534
673 575 1154 20 229 -2 467 -75 840 -72 361 -89 568 -65 775 24 212 108 409
227 535 29 30 55 55 59 55 3 0 2 -6 -3 -12z m-1584 -141 c41 -408 -24 -722
-211 -1022 -115 -183 -252 -322 -438 -445 -130 -85 -170 -118 -170 -137 0 -38
144 15 255 95 28 20 74 56 103 80 43 36 56 42 63 31 114 -172 263 -523 318
-747 50 -201 65 -313 65 -492 1 -220 -31 -396 -98 -552 -205 -475 -548 -678
-1146 -679 -315 -1 -468 43 -610 177 -167 158 -304 449 -269 576 11 43 56 78
100 78 90 0 174 -69 281 -230 44 -66 70 -96 86 -98 19 -3 22 1 22 33 0 62 -79
197 -155 264 l-34 30 32 20 c18 11 59 29 92 41 117 42 136 52 124 67 -16 18
-105 17 -165 -4 -53 -18 -87 -36 -121 -66 -21 -18 -23 -18 -72 -2 -96 32 -166
19 -223 -42 -37 -38 -48 -73 -48 -147 0 -83 22 -163 75 -274 61 -128 126 -224
204 -305 l65 -68 -104 6 c-462 27 -593 46 -689 103 -39 23 -55 26 -118 24 -48
-1 -86 3 -111 13 -63 27 -128 74 -142 103 -29 62 -79 193 -110 287 -18 55 -47
138 -65 185 -52 136 -51 130 -14 130 90 0 184 -89 259 -244 27 -56 55 -110 64
-121 43 -55 47 84 4 176 -14 30 -50 85 -81 121 l-56 66 19 140 c27 202 32 216
100 281 67 65 75 89 74 224 -1 139 -40 146 -64 10 -27 -156 -122 -258 -250
-271 -39 -3 -49 0 -73 23 -79 80 -54 219 76 407 84 120 134 220 183 368 22 63
40 117 42 120 2 2 21 -5 42 -18 40 -23 120 -31 120 -11 0 27 -26 51 -102 94
-128 72 -229 150 -333 254 -116 118 -201 224 -254 316 -62 108 -64 100 33 113
254 34 446 211 512 472 9 36 20 70 25 76 14 17 111 61 152 68 89 16 228 -46
235 -104 2 -14 12 -54 24 -90 59 -185 170 -318 329 -394 107 -52 170 -67 284
-68 130 -1 238 35 365 123 30 20 68 50 84 65 19 18 31 24 34 16 12 -36 33 -42
145 -42 62 0 163 -7 226 -17 110 -16 114 -16 127 2 19 26 14 35 -27 57 -48 25
-152 38 -311 38 -76 0 -138 4 -138 8 0 4 12 24 26 43 65 87 103 205 104 319
l0 55 113 44 c98 38 999 341 1052 354 52 12 51 14 64 -106z m-3808 59 c30 -13
78 -29 107 -36 51 -13 52 -15 52 -49 0 -20 -4 -41 -8 -47 -7 -12 -227 -85
-289 -97 -39 -8 -41 2 -17 84 25 84 72 169 94 169 4 0 32 -11 61 -24z m138
-268 c-19 -101 -8 -336 27 -556 l7 -44 -49 26 c-104 54 -203 157 -246 256 -23
53 -45 147 -50 210 l-3 44 75 28 c67 25 225 76 241 77 4 1 3 -18 -2 -41z
m-989 -2184 c634 -27 912 -45 946 -59 43 -18 55 -39 115 -191 67 -174 345
-908 424 -1120 35 -94 79 -206 98 -248 22 -46 31 -76 24 -77 -146 -9 -1729 80
-1887 106 -51 9 -105 48 -134 98 -32 53 -181 453 -341 912 -35 99 -84 238
-109 307 -28 77 -46 145 -46 170 0 49 29 104 63 118 26 11 391 4 847 -16z
m1165 -199 c23 -49 64 -148 90 -220 26 -71 63 -168 81 -215 18 -47 64 -173
103 -280 38 -107 84 -231 101 -275 50 -124 148 -411 152 -441 4 -34 -18 -43
-27 -12 -47 155 -503 1373 -561 1498 l-45 95 32 -30 c17 -17 51 -70 74 -120z
m3149 -1111 c27 -10 18 -22 -31 -40 -27 -10 -67 -38 -90 -62 -37 -38 -47 -43
-80 -40 l-37 3 60 38 c33 20 76 53 94 72 33 34 53 41 84 29z m392 -25 c3 -6 0
-15 -7 -20 -23 -14 -55 -10 -80 11 l-24 19 52 1 c28 0 55 -5 59 -11z m-2976
-14 l35 -13 -31 -1 c-16 -1 -39 6 -50 14 -25 19 -3 19 46 0z m3115 -10 l30
-13 -29 -11 c-48 -19 -80 -11 -84 22 -3 26 -1 27 25 21 15 -4 42 -12 58 -19z
m-316 -39 c21 -14 57 -30 79 -37 38 -11 57 -29 32 -29 -18 0 -110 -62 -121
-81 -9 -18 -7 -19 18 -13 15 4 67 27 115 51 101 51 219 93 261 93 43 0 91 -27
136 -75 66 -72 68 -117 6 -152 -80 -45 -307 -63 -555 -44 -189 15 -241 25
-274 56 -34 32 -33 63 7 121 38 56 105 107 185 140 49 20 58 21 65 8 5 -8 25
-25 46 -38z m-2524 -51 c99 -7 295 -23 435 -34 140 -11 302 -24 360 -28 l105
-8 3 -35 3 -36 -183 -22 c-101 -12 -239 -27 -308 -32 -69 -5 -168 -14 -220
-19 -52 -6 -175 -13 -272 -17 l-178 -7 0 46 0 47 78 1 c108 1 239 13 248 22
19 19 -30 27 -168 27 -139 0 -178 4 -178 19 0 10 222 1 363 -14 125 -14 177
-10 177 15 0 18 -72 26 -350 40 -196 10 -219 15 -220 43 0 10 99 8 305 -8z"/>
<path d="M7175 7813 c-104 -22 -211 -67 -300 -125 -100 -66 -249 -212 -307
-303 -99 -153 -187 -366 -191 -460 -2 -44 0 -50 19 -53 14 -2 29 7 43 24 l22
28 60 -60 c89 -88 156 -181 264 -364 109 -185 120 -200 148 -200 17 0 19 5 14
47 -12 108 -192 391 -367 576 l-93 98 12 39 c23 78 121 256 185 337 114 144
274 260 436 320 70 25 86 27 230 27 115 0 171 -4 215 -16 67 -19 86 -12 66 25
-28 53 -117 77 -279 76 -59 0 -138 -7 -177 -16z"/>
<path d="M3665 5686 c-89 -41 -131 -180 -90 -297 59 -168 203 -197 277 -56 18
33 22 60 23 127 0 76 -3 91 -30 139 -16 30 -41 63 -55 73 -34 25 -88 31 -125
14z"/>
<path d="M4935 5676 c-74 -34 -115 -110 -115 -215 0 -87 23 -143 78 -193 57
-51 108 -64 178 -43 195 57 236 305 69 424 -42 31 -58 36 -114 38 -41 2 -77
-2 -96 -11z"/>
<path d="M4201 5244 c-42 -35 -43 -89 -3 -126 37 -34 59 -40 99 -27 32 10 63
51 63 83 0 29 -24 68 -51 82 -41 21 -74 17 -108 -12z"/>
<path d="M5500 4920 c0 -34 6 -38 123 -80 47 -17 124 -54 172 -81 92 -53 128
-59 133 -23 8 54 -127 140 -293 188 -119 35 -135 34 -135 -4z"/>
<path d="M5100 3811 c-236 -107 -350 -172 -421 -238 -145 -137 -160 -279 -40
-360 50 -34 90 -37 288 -25 284 19 445 55 479 107 34 52 -4 56 -181 20 -137
-29 -457 -61 -509 -51 -43 8 -86 56 -86 97 0 72 89 180 200 242 36 19 117 57
180 82 173 70 251 123 237 159 -10 24 -33 19 -147 -33z"/>
<path d="M2522 2796 c-35 -32 -37 -38 -36 -93 1 -93 54 -176 137 -218 58 -28
95 -31 136 -11 43 23 64 62 63 120 -1 125 -103 235 -220 236 -34 0 -49 -6 -80
-34z m121 -49 c18 -8 49 -33 70 -56 31 -34 37 -48 37 -84 0 -81 -53 -97 -129
-40 -35 27 -70 92 -71 131 0 22 32 62 50 62 6 0 25 -6 43 -13z"/>
<path d="M4468 1943 c12 -2 30 -2 40 0 9 3 -1 5 -23 4 -22 0 -30 -2 -17 -4z"/>
<path d="M4735 1940 c91 -12 167 -12 160 0 -4 6 -51 9 -113 9 -98 -2 -102 -3
-47 -9z"/>
<path d="M5048 1933 c6 -2 18 -2 25 0 6 3 1 5 -13 5 -14 0 -19 -2 -12 -5z"/>
<path d="M3064 4949 c-70 -22 -148 -71 -178 -111 -19 -27 -19 -28 -1 -48 10
-11 21 -20 25 -20 3 0 37 21 75 46 39 25 103 61 143 79 55 26 72 39 72 54 0
18 -6 21 -37 20 -21 0 -66 -9 -99 -20z"/>
</g>
</svg>
